<?xml version="1.0" encoding="UTF-8" standalone="no"?>
<svg width="800" height="600" viewBox="0 0 800 600" xmlns="http://www.w3.org/2000/svg">
  <defs>
    <pattern id="lab-pattern" x="0" y="0" width="100" height="100" patternUnits="userSpaceOnUse">
      <!-- Test tubes -->
      <path d="M20,20 L25,60 L35,60 L40,20 Z" fill="#ffffff" stroke="#6f4e37" stroke-width="1" opacity="0.5"/>
      <path d="M70,30 L75,70 L85,70 L90,30 Z" fill="#ffffff" stroke="#6f4e37" stroke-width="1" opacity="0.5"/>
      
      <!-- Flask -->
      <path d="M50,10 L45,30 L40,60 C40,70 60,70 60,60 L55,30 L50,10 Z" fill="#ffffff" stroke="#6f4e37" stroke-width="1" opacity="0.5"/>
      
      <!-- Microscope outline -->
      <path d="M15,80 C15,85 25,85 25,80 L20,70 L15,80 Z" fill="#ffffff" stroke="#6f4e37" stroke-width="1" opacity="0.5"/>
      <circle cx="20" cy="65" r="3" fill="#ffffff" stroke="#6f4e37" stroke-width="1" opacity="0.5"/>
      
      <!-- DNA helix -->
      <path d="M80,10 C85,20 75,30 80,40 C85,50 75,60 80,70" fill="none" stroke="#6f4e37" stroke-width="1" opacity="0.5"/>
      <path d="M90,10 C85,20 95,30 90,40 C85,50 95,60 90,70" fill="none" stroke="#6f4e37" stroke-width="1" opacity="0.5"/>
      
      <!-- Connecting lines -->
      <line x1="82" y1="15" x2="88" y2="15" stroke="#6f4e37" stroke-width="1" opacity="0.5"/>
      <line x1="82" y1="35" x2="88" y2="35" stroke="#6f4e37" stroke-width="1" opacity="0.5"/>
      <line x1="82" y1="55" x2="88" y2="55" stroke="#6f4e37" stroke-width="1" opacity="0.5"/>
    </pattern>
  </defs>
  
  <!-- Background with coffee brown gradient -->
  <rect width="800" height="600" fill="#f5f5f5"/>
  
  <!-- Pattern overlay -->
  <rect width="800" height="600" fill="url(#lab-pattern)" opacity="0.2"/>
  
  <!-- Gradient overlay (top to bottom) -->
  <rect width="800" height="600" fill="url(#grad)" opacity="0.3"/>
  
  <linearGradient id="grad" x1="0%" y1="0%" x2="0%" y2="100%">
    <stop offset="0%" style="stop-color:#6f4e37;stop-opacity:0.2"/>
    <stop offset="100%" style="stop-color:#3d2314;stop-opacity:0.1"/>
  </linearGradient>
</svg>